#!OML:ASF H:\ManfredETheater\Project 1\Capture day 1\Session 1\subject.ASF
:FULLY-SPECIFIED
:DEGREES
91
root -0.315638 15.7951 -2.52272 -189.852 2.76274 -180.088
lowerback 12.5329 2.45249 0.707539
upperback -1.08905 3.65469 2.42733
thorax -8.32569 1.83388 1.46599
lowerneck -16.8171 -2.49275 -3.93114
upperneck 13.698 -2.68463 1.27187
head 7.02334 -1.39681 0.758691
rclavicle -2.57426e-014 -3.33958e-014
rhumerus -40.1184 3.008 -90.3749
rradius 79.95
rwrist 0.466672
rhand -26.3336 7.23991
rfingers 7.12502
rthumb 0.223552 -22.7397
lclavicle -2.57426e-014 -3.33958e-014
lhumerus -57.5921 13.3257 73.1067
lradius 38.6489
lwrist 2.2917
lhand -30.2692 -11.1791
lfingers 7.12502
lthumb -3.5774 18.7706
rfemur -17.4372 -15.3247 17.9847
rtibia 87.6227
rfoot -16.9356 -13.1735
rtoes -33.9427
lfemur -36.4722 0.578009 -23.9517
ltibia 66.6938
lfoot -14.0036 -0.534471
ltoes 3.84607
92
root -0.307192 15.8638 -2.77387 -189.688 2.56651 -180.471
lowerback 12.4589 2.28215 0.513545
upperback -1.14528 3.37953 2.30398
thorax -8.33962 1.70281 1.50033
lowerneck -17.0027 -2.42579 -3.84338
upperneck 13.4826 -2.59427 1.25107
head 6.98061 -1.34555 0.746987
rclavicle -2.28602e-015 -4.13472e-014
rhumerus -40.8376 3.16775 -90.3731
rradius 79.6356
rwrist 0.602855
rhand -26.4816 7.35762
rfingers 7.12502
rthumb 0.0806271 -22.6221
lclavicle -2.28602e-015 -4.13472e-014
lhumerus -56.6229 13.5167 74.3363
lradius 39.3105
lwrist 3.38279
lhand -30.6822 -10.9024
lfingers 7.12502
lthumb -3.97626 19.0402
rfemur -19.6738 -15.549 17.9289
rtibia 87.1388
rfoot -17.6154 -12.8225
rtoes -34.7652
lfemur -35.4412 0.448781 -24.447
ltibia 66.446
lfoot -14.8257 -0.288284
ltoes 4.00963
93
root -0.298456 15.9309 -3.02134 -189.522 2.44126 -180.809
lowerback 12.3888 2.13856 0.386576
upperback -1.1929 3.15294 2.19395
thorax -8.3444 1.59331 1.50128
lowerneck -17.1859 -2.36982 -3.77895
upperneck 13.2922 -2.51372 1.22108
head 6.94613 -1.30186 0.734899
rclavicle 1.15295e-014 2.46493e-014
rhumerus -41.5451 3.25549 -90.3186
rradius 79.4218
rwrist 0.360165
rhand -26.7097 7.30911
rfingers 7.12502
rthumb -0.139738 -22.6706
lclavicle 1.15295e-014 2.46493e-014
lhumerus -55.6411 13.3762 75.7603
lradius 40.1564
lwrist 4.66382
lhand -30.9976 -10.661
lfingers 7.12502
lthumb -4.28082 19.2757
rfemur -21.8464 -15.5689 17.9573
rtibia 86.3853
rfoot -18.1803 -12.3526
rtoes -35.5984
lfemur -34.3796 0.355652 -24.8824
ltibia 66.1403
lfoot -15.6658 0.0115706
ltoes 4.14547
94
root -0.288569 15.9958 -3.26514 -189.361 2.36863 -181.121
lowerback 12.3457 2.01583 0.291144
upperback -1.23843 2.96133 2.09425
thorax -8.36234 1.49997 1.48748
lowerneck -17.3719 -2.31701 -3.73073
upperneck 13.1437 -2.43383 1.1815
head 6.92591 -1.26108 0.722057
rclavicle -4.67144e-015 -1.11319e-014
rhumerus -42.2385 3.26923 -90.214
rradius 79.2871
rwrist -0.139552
rhand -26.9516 7.1522
rfingers 7.12502
rthumb -0.373322 -22.8272
lclavicle -4.67144e-015 -1.11319e-014
lhumerus -54.6739 12.9327 77.3159
lradius 41.162
lwrist 5.97035
lhand -31.21 -10.4201
lfingers 7.12502
lthumb -4.48593 19.5124
rfemur -23.9286 -15.4047 18.0277
rtibia 85.3667
rfoot -18.613 -11.8109
rtoes -36.3146
lfemur -33.286 0.287298 -25.2793
ltibia 65.776
lfoot -16.5201 0.35608
ltoes 4.32255
95
root -0.27701 16.0583 -3.5059 -189.204 2.32249 -181.421
lowerback 12.3245 1.90507 0.201414
upperback -1.28308 2.78801 2.00123
thorax -8.39253 1.41564 1.47322
lowerneck -17.5623 -2.26043 -3.68938
upperneck 13.041 -2.34684 1.13026
head 6.92111 -1.21912 0.707146
rclavicle -6.95746e-016 -4.37326e-014
rhumerus -42.9075 3.21441 -90.0586
rradius 79.21
rwrist -0.732708
rhand -27.1518 6.95538
rfingers 7.12502
rthumb -0.566684 -23.0236
lclavicle -6.95746e-016 -4.37326e-014
lhumerus -53.7457 12.2081 78.9536
lradius 42.3164
lwrist 7.16743
lhand -31.3457 -10.2536
lfingers 7.12502
lthumb -4.61697 19.6761
rfemur -25.9019 -15.0895 18.1015
rtibia 84.0866
rfoot -18.9133 -11.2265
rtoes -36.8487
lfemur -32.1638 0.220898 -25.6567
ltibia 65.3491
lfoot -17.3763 0.733445
ltoes 4.54996
96
root -0.263301 16.1182 -3.74419 -189.042 2.28655 -181.718
lowerback 12.3169 1.79975 0.099482
upperback -1.33181 2.62077 1.91139
thorax -8.43592 1.33505 1.46761
lowerneck -17.7572 -2.19512 -3.64786
upperneck 12.9791 -2.24743 1.0678
head 6.92998 -1.17291 0.689807
rclavicle 2.87244e-014 3.73715e-014
rhumerus -43.5482 3.10897 -89.8587
rradius 79.1633
rwrist -1.22677
rhand -27.287 6.76723
rfingers 7.12502
rthumb -0.697324 -23.2114
lclavicle 2.87244e-014 3.73715e-014
lhumerus -52.8799 11.2347 80.6203
lradius 43.6062
lwrist 8.13738
lhand -31.3922 -10.104
lfingers 7.12502
lthumb -4.66184 19.8247
rfemur -27.7582 -14.6428 18.1536
rtibia 82.5488
rfoot -19.0772 -10.6219
rtoes -37.2131
lfemur -31.0273 0.144096 -26.0263
ltibia 64.857
lfoot -18.2216 1.12978
ltoes 4.85545
97
root -0.247169 16.177 -3.98058 -188.868 2.22429 -182.013
lowerback 12.3092 1.68667 -0.0207259
upperback -1.38255 2.4407 1.8236
thorax -8.48186 1.24932 1.47707
lowerneck -17.9618 -2.11974 -3.60436
upperneck 12.9468 -2.13421 0.997996
head 6.94973 -1.12114 0.671212
rclavicle 2.96189e-014 5.56597e-015
rhumerus -44.1454 2.96673 -89.6156
rradius 79.1308
rwrist -1.48545
rhand -27.3329 6.62298
rfingers 7.12502
rthumb -0.741608 -23.3555
lclavicle 2.96189e-014 5.56597e-015
lhumerus -52.0788 10.0734 82.261
lradius 45.0043
lwrist 8.75708
lhand -31.3735 -9.99643
lfingers 7.12502
lthumb -4.64379 19.9327
rfemur -29.4726 -14.1125 18.163
rtibia 80.7447
rfoot -19.113 -9.98368
rtoes -37.3859
lfemur -29.8791 0.0294326 -26.3926
ltibia 64.2892
lfoot -19.0379 1.52454
ltoes 5.2287
98
root -0.22863 16.2362 -4.21581 -188.667 2.14268 -182.311
lowerback 12.2808 1.56927 -0.164179
upperback -1.44051 2.25103 1.7357
thorax -8.5242 1.16017 1.50191
lowerneck -18.1599 -2.03487 -3.56043
upperneck 12.9248 -2.00949 0.930165
head 6.9716 -1.06399 0.654611
rclavicle 4.17448e-015 5.56597e-015
rhumerus -44.7063 2.80128 -89.3336
rradius 79.1081
rwrist -1.4373
rhand -27.276 6.53683
rfingers 7.12502
rthumb -0.68662 -23.4418
lclavicle 4.17448e-015 5.56597e-015
lhumerus -51.3622 8.76706 83.8348
lradius 46.5012
lwrist 8.98143
lhand -31.3168 -10.0029
lfingers 7.12502
lthumb -4.58908 19.9274
rfemur -31.0361 -13.5032 18.1183
rtibia 78.6596
rfoot -18.9974 -9.30662
rtoes -37.4147
lfemur -28.7254 -0.114041 -26.7568
ltibia 63.6293
lfoot -19.8067 1.90514
ltoes 5.67008
99
root -0.207573 16.299 -4.44991 -188.433 2.04171 -182.602
lowerback 12.2198 1.44852 -0.328039
upperback -1.50459 2.05385 1.65034
thorax -8.55474 1.06862 1.54311
lowerneck -18.3558 -1.94504 -3.51258
upperneck 12.9065 -1.87954 0.861965
head 6.99423 -1.00439 0.637977
rclavicle -1.08338e-014 4.29375e-014
rhumerus -45.225 2.62973 -89.0172
rradius 79.0924
rwrist -1.08598
rhand -27.1476 6.49532
rfingers 7.12502
rthumb -0.562601 -23.4837
lclavicle -1.08338e-014 4.29375e-014
lhumerus -50.7294 7.36458 85.3138
lradius 48.0853
lwrist 8.79579
lhand -31.2381 -10.0953
lfingers 7.12502
lthumb -4.51303 19.8366
rfemur -32.4227 -12.8245 18.0222
rtibia 76.2713
rfoot -18.7095 -8.57314
rtoes -37.345
lfemur -27.562 -0.279652 -27.1062
ltibia 62.8582
lfoot -20.5119 2.24996
ltoes 6.18423
100
root -0.183896 16.3684 -4.68302 -188.17 1.88696 -182.876
lowerback 12.1277 1.31427 -0.505869
upperback -1.5738 1.83703 1.56852
thorax -8.57225 0.968537 1.6002
lowerneck -18.5478 -1.85484 -3.46249
upperneck 12.8867 -1.75151 0.801825
head 7.01596 -0.945017 0.623557
rclavicle -1.19271e-015 4.77083e-015
rhumerus -45.7044 2.4607 -88.6736
rradius 79.0841
rwrist -0.50053
rhand -26.9711 6.49564
rfingers 7.12502
rthumb -0.392184 -23.4837
lclavicle -1.19271e-015 4.77083e-015
lhumerus -50.1758 5.91262 86.6743
lradius 49.7372
lwrist 8.22633
lhand -31.1525 -10.2918
lfingers 7.12502
lthumb -4.43042 19.6419
rfemur -33.5861 -12.1181 17.8739
rtibia 73.5655
rfoot -18.2098 -7.77386
rtoes -37.2348
lfemur -26.3739 -0.487432 -27.4293
ltibia 61.9675
lfoot -21.1315 2.54751
ltoes 6.62298
101
root -0.157853 16.4441 -4.91546 -187.882 1.70642 -183.132
lowerback 12.0025 1.17697 -0.697869
upperback -1.64647 1.61502 1.49314
thorax -8.57418 0.867005 1.67334
lowerneck -18.7423 -1.76847 -3.41158
upperneck 12.8716 -1.63081 0.7517
head 7.03996 -0.888332 0.611551
rclavicle 9.54166e-015 -7.95139e-016
rhumerus -46.145 2.30831 -88.3081
rradius 79.0816
rwrist 0.21015
rhand -26.7787 6.52084
rfingers 7.12502
rthumb -0.206388 -23.4588
lclavicle 9.54166e-015 -7.95139e-016
lhumerus -49.7 4.44632 87.9076
lradius 51.45
lwrist 7.35073
lhand -31.0765 -10.5904
lfingers 7.12502
lthumb -4.357 19.3447
rfemur -34.5121 -11.3683 17.6763
rtibia 70.5591
rfoot -17.4448 -6.89646
rtoes -37.0993
lfemur -25.1669 -0.705929 -27.7189
ltibia 60.9747
lfoot -21.6713 2.78524
ltoes 7.07606
102
root -0.12909 16.5215 -5.14717 -187.573 1.48479 -183.357
lowerback 11.8519 1.03359 -0.897098
upperback -1.72298 1.38553 1.42745
thorax -8.56482 0.762691 1.7621
lowerneck -18.9332 -1.69123 -3.36127
upperneck 12.8556 -1.52472 0.713268
head 7.06351 -0.837682 0.601949
rclavicle 2.0276e-014 5.56597e-015
rhumerus -46.5451 2.17658 -87.9253
rradius 79.0863
rwrist 0.917182
rhand -26.5988 6.54251
rfingers 7.12502
rthumb -0.0325496 -23.4372
lclavicle 2.0276e-014 5.56597e-015
lhumerus -49.2942 2.98953 89.0126
lradius 53.2115
lwrist 6.28164
lhand -31.025 -10.98
lfingers 7.12502
lthumb -4.30726 18.9561
rfemur -35.2124 -10.6002 17.4446
rtibia 67.3012
rfoot -16.3365 -5.95911
rtoes -36.9709
lfemur -23.9692 -0.93788 -27.9611
ltibia 59.926
lfoot -22.134 2.95475
ltoes 7.49355
